<svg width="256" height="256" viewBox="0 0 256 256" fill="none" xmlns="http://www.w3.org/2000/svg">
  <defs>
    <linearGradient id="markStroke" x1="48" y1="16" x2="210" y2="218" gradientUnits="userSpaceOnUse">
      <stop stop-color="#4C7FB9"/>
      <stop offset="1" stop-color="#FF7A2E"/>
    </linearGradient>
    <linearGradient id="markFill" x1="84" y1="60" x2="171" y2="160" gradientUnits="userSpaceOnUse">
      <stop stop-color="#FFC254"/>
      <stop offset="1" stop-color="#FF6D2E"/>
    </linearGradient>
  </defs>

  <path d="M128 14L198 37V110C198 145 168 174 128 191C88 174 58 145 58 110V37L128 14Z" stroke="url(#markStroke)" stroke-width="8" fill="#0B101B"/>
  <path d="M88 89C88 66 106 48 128 48C150 48 168 66 168 89" stroke="url(#markFill)" stroke-width="8" stroke-linecap="round"/>
  <rect x="75" y="80" width="18" height="54" rx="8" fill="url(#markFill)"/>
  <rect x="163" y="80" width="18" height="54" rx="8" fill="url(#markFill)"/>
  <rect x="117" y="76" width="22" height="28" rx="10" stroke="url(#markFill)" stroke-width="4"/>
  <path d="M128 104V114" stroke="url(#markFill)" stroke-width="4" stroke-linecap="round"/>
  <path d="M108 124C116 132 140 132 148 124" stroke="url(#markFill)" stroke-width="4" stroke-linecap="round"/>
  <text x="128" y="101" text-anchor="middle" font-family="Inter, Arial, sans-serif" font-size="24" font-weight="800" fill="url(#markFill)">i9</text>
</svg>
